<?xml version="1.0" encoding="UTF-8" standalone="no"?>
<!-- Created with Inkscape (http://www.inkscape.org/) -->

<svg
   width="39.177612mm"
   height="39.178413mm"
   viewBox="0 0 39.177612 39.178413"
   version="1.1"
   id="svg1"
   xml:space="preserve"
   xmlns="http://www.w3.org/2000/svg"
   xmlns:svg="http://www.w3.org/2000/svg"><defs
     id="defs1" /><g
     id="layer1"
     transform="translate(-102.23475,-61.649859)"><path
       style="fill:#000000"
       d="m 107.52642,98.18222 v -2.64583 h 3.83646 3.83645 v -1.32292 -1.32292 h 1.32292 1.32291 v -1.32291 -1.32292 h 1.32292 1.32292 V 86.40826 82.5718 h -1.32292 -1.32292 v 1.32292 1.32292 h -1.32291 -1.32292 v 1.19062 1.19063 h -1.32291 -1.32292 v 1.32291 1.32292 h -3.83646 -3.83646 V 88.9218 87.59889 h -1.32291 -1.32292 V 85.08535 82.5718 h 1.32292 1.32291 v -1.32291 -1.32292 h -1.32291 -1.32292 V 77.28014 74.6343 h 1.32292 1.32291 v -1.32291 -1.32292 h 3.83646 3.83646 v -3.83646 -3.83646 h 1.32292 1.32291 v -1.32291 -1.32292 h 2.64583 2.64584 v 1.32292 1.32291 h 1.32291 1.32292 v -1.33284 -1.33285 l 2.4474,0.0761 2.44739,0.0761 0.0801,1.24284 0.0801,1.24285 1.24284,0.0801 1.24285,0.0801 0.0734,3.76329 0.0734,3.76328 3.89538,0.0732 3.89539,0.0732 0.0801,1.24284 0.0801,1.24285 1.24285,0.0801 1.24284,0.0801 0.0757,2.57969 0.0757,2.57969 h -1.3325 -1.33249 v 1.32292 1.32291 h 1.32291 1.32292 v 2.51355 2.51354 h -1.32292 -1.32291 v 1.32291 1.32292 h -3.96875 -3.96875 v -1.32292 -1.32291 h -1.32292 -1.32292 v -1.32292 -1.32292 h -1.32291 -1.32292 v -1.19062 -1.19063 h -1.19062 -1.19063 v 5.15938 5.15937 h -1.32292 -1.32291 v 1.32292 1.32292 h -1.32292 -1.32292 v 1.32291 1.32292 h -2.64583 -2.64583 v 1.32292 1.32291 h -2.51354 -2.51354 z m 15.61041,-16.93333 v -1.32292 h 1.19063 1.19062 v -1.32292 -1.32291 h -1.19062 -1.19063 v 1.32291 1.32292 h -1.32292 -1.32291 v -1.32292 -1.32291 h -1.32292 -1.32292 V 75.95722 74.6343 h -1.32291 -1.32292 v -1.32291 -1.32292 h -1.32291 -1.32292 v 1.32292 1.32291 h 1.32292 1.32291 v 1.32292 1.32292 h 1.32292 1.32291 v 1.32291 1.32292 h 1.32292 1.32292 v 1.32292 1.32291 h 1.32291 1.32292 z m 5.02708,-5.29167 V 74.6343 h 1.32292 1.32292 v -1.32291 -1.32292 h -1.32292 -1.32292 v 1.32292 1.32291 h -1.19062 -1.19063 v 1.32292 1.32292 h 1.19063 1.19062 z"
       id="path1" /></g></svg>
