<?xml version="1.0" encoding="UTF-8" standalone="no"?>
<!-- Created with Inkscape (http://www.inkscape.org/) -->

<svg
   width="38.893749mm"
   height="39.158257mm"
   viewBox="0 0 38.893749 39.158257"
   version="1.1"
   id="svg1"
   xml:space="preserve"
   xmlns="http://www.w3.org/2000/svg"
   xmlns:svg="http://www.w3.org/2000/svg"><defs
     id="defs1" /><g
     id="layer1"
     transform="translate(-102.36704,-60.6547)"><path
       style="fill:#000000"
       d="M 117.97745,98.49011 V 97.1672 h -2.64583 -2.64583 v -1.32292 -1.32292 h -2.51354 -2.51355 v -1.19062 -1.19063 h -1.32291 -1.32292 v -2.64583 -2.64583 h -1.32292 -1.32291 V 82.8797 78.91095 h 1.32291 1.32292 v 1.32291 1.32292 h 2.51354 2.51354 v 1.32292 1.32291 h 2.64584 2.64583 V 82.8797 81.55678 h 1.32292 1.32291 v -1.32292 -1.32291 h 2.64584 2.64583 V 77.72032 76.5297 h 1.32292 1.32291 v -1.32292 -1.32292 h -1.32291 -1.32292 v -1.32291 -1.32292 h -1.32292 -1.32291 V 68.5922 65.94636 h 1.32291 1.32292 v -1.32291 -1.32292 h 1.32292 1.32291 V 61.97761 60.6547 h 3.70417 3.70417 v 1.32291 1.32292 h 1.32291 1.32292 v 1.32292 1.32291 h 2.64583 2.64584 v 1.32292 1.32292 h -1.32292 -1.32292 v 1.32291 1.32292 h -1.32291 -1.32292 v 1.32292 1.32291 h -1.32292 -1.32291 v 1.32292 1.32292 h 1.32291 1.32292 v 1.19062 1.19063 h 1.32292 1.32291 v 5.29166 5.29167 h -1.32291 -1.32292 v 1.30842 1.30842 l -1.25677,0.0806 -1.25677,0.0806 -0.0809,1.11508 -0.0809,1.11508 -2.56493,0.0756 -2.56494,0.0755 -0.0806,1.25677 -0.0806,1.25678 h 2.66033 2.66033 v 1.32291 1.32292 h -7.67292 -7.67292 z m 2.64584,-2.64583 v -1.32292 h -1.32292 -1.32292 v 1.32292 1.32292 h 1.32292 1.32292 z m 10.31875,-5.02708 v -1.32292 h 1.32291 1.32292 v -2.64583 -2.64584 h -1.32292 -1.32291 V 82.8797 81.55678 h -3.83646 -3.83646 v 1.32292 1.32291 h -1.32292 -1.32291 v 1.32292 1.32292 h -1.32292 -1.32292 v 1.32291 1.32292 h 1.32292 1.32292 v -1.32292 -1.32291 h 1.32291 1.32292 v -1.32292 -1.32292 h 3.70417 3.70416 v 2.63626 2.63625 l -2.57889,0.0757 -2.57888,0.0757 -0.0334,1.25677 -0.0333,1.25677 h 2.74453 2.74454 z m 2.64583,-23.56175 v -1.33674 l -1.38906,0.08 -1.38907,0.08 -0.0806,1.25677 -0.0806,1.25677 h 1.4697 1.46971 z"
       id="path1" /></g></svg>
