<?xml version="1.0" encoding="UTF-8" standalone="no"?>
<!-- Created with Inkscape (http://www.inkscape.org/) -->

<svg
   width="35.144512mm"
   height="35.205395mm"
   viewBox="0 0 35.144512 35.205395"
   version="1.1"
   id="svg1"
   xml:space="preserve"
   xmlns="http://www.w3.org/2000/svg"
   xmlns:svg="http://www.w3.org/2000/svg"><defs
     id="defs1" /><g
     id="layer1"
     transform="translate(-98.93529,-66.30261)"><path
       style="fill:#000000"
       d="m 99.010725,101.17668 c -0.06998,-0.18236 -0.09601,-4.855573 -0.05784,-10.384903 l 0.06939,-10.05333 1.774115,-0.078 1.77412,-0.078 0.078,-1.77412 0.078,-1.77412 1.64134,-0.0785 1.64134,-0.0785 0.0785,-1.64134 0.0785,-1.64134 1.64134,-0.0785 1.64134,-0.0785 0.0785,-1.64134 0.0784,-1.64134 1.77412,-0.078 1.77412,-0.078 0.078,-1.77412 0.078,-1.77412 3.37344,-0.074 3.37343,-0.074 v 1.85999 1.85999 h 1.71979 1.7198 v 1.71979 1.71979 h 1.85208 1.85208 v 1.71979 1.71979 h 1.71979 1.7198 v 1.85209 1.85208 h 1.71979 1.71979 V 91.056957 101.508 H 116.609 c -13.75604,0 -17.497862,-0.0705 -17.598042,-0.33156 z M 120.05665,87.485327 v -3.43959 h -3.43958 -3.43958 v 3.43959 3.43958 h 3.43958 3.43958 z"
       id="path1" /></g></svg>
