<?xml version="1.0" encoding="UTF-8" standalone="no"?>
<!-- Created with Inkscape (http://www.inkscape.org/) -->

<svg
   width="68.800644mm"
   height="68.79158mm"
   viewBox="0 0 68.800644 68.79158"
   version="1.1"
   id="svg5"
   xml:space="preserve"
   xmlns:inkscape="http://www.inkscape.org/namespaces/inkscape"
   xmlns:sodipodi="http://sodipodi.sourceforge.net/DTD/sodipodi-0.dtd"
   xmlns="http://www.w3.org/2000/svg"
   xmlns:svg="http://www.w3.org/2000/svg"><sodipodi:namedview
     id="namedview7"
     pagecolor="#ffffff"
     bordercolor="#000000"
     borderopacity="0.25"
     inkscape:showpageshadow="2"
     inkscape:pageopacity="0.0"
     inkscape:pagecheckerboard="0"
     inkscape:deskcolor="#d1d1d1"
     inkscape:document-units="mm"
     showgrid="false" /><defs
     id="defs2" /><g
     inkscape:label="Layer 1"
     inkscape:groupmode="layer"
     id="layer1"
     transform="translate(-111.19123,-142.71846)"><path
       style="fill:#000000;stroke-width:0.264583"
       d="m 111.36761,211.33364 c -0.097,-0.097 -0.17638,-1.64483 -0.17638,-3.43959 v -3.26319 h 3.43958 3.43958 v -3.43958 -3.43959 h 3.43958 3.43959 v -3.43167 -3.43168 l -3.37344,-0.074 -3.37344,-0.074 -0.0685,-13.69219 -0.0685,-13.69219 h 3.44197 3.44196 v -3.43958 -3.43958 h 3.43959 3.43958 v -3.43959 -3.43958 h 3.43958 3.43958 v -3.43958 -3.43959 h 20.64197 20.64196 l -0.0706,6.81302 -0.0706,6.81302 -3.37344,0.074 -3.37344,0.074 v 17.19002 17.19001 h -3.43958 -3.43958 v 3.43958 3.43958 h -3.43958 -3.43959 v 3.43959 3.43958 h -13.75834 -13.75834 v -3.43958 -3.43959 h -3.43958 -3.43958 v 6.87917 6.87917 h -6.70278 c -3.68653,0 -6.78215,-0.0794 -6.87917,-0.17639 z m 47.97778,-17.02153 v -3.43958 h -13.75833 -13.75834 v 3.43958 3.43958 h 13.75834 13.75833 z m -27.51667,-20.6375 v -10.31875 h -3.43958 -3.43958 v 10.31875 10.31875 h 3.43958 3.43958 z m 34.39584,6.87917 v -3.43959 h -10.31875 -10.31875 v -13.75833 -13.75833 h -3.43959 -3.43958 v 13.75833 13.75833 h 3.43958 3.43959 v 3.43959 3.43958 h 10.31875 10.31875 z m 0,-13.75833 v -3.43959 h -3.43959 -3.43958 v -6.87916 -6.87917 h -3.43958 -3.43959 v 6.87917 6.87916 h 3.43959 3.43958 v 3.43959 3.43958 h 3.43958 3.43959 z m 6.87916,-13.75834 v -3.43958 h -3.43958 -3.43958 v 3.43958 3.43959 h 3.43958 3.43958 z"
       id="path1582"
       inkscape:export-filename="path1582.svg"
       inkscape:export-xdpi="96"
       inkscape:export-ydpi="96" /></g></svg>
