<?xml version="1.0" encoding="UTF-8" standalone="no"?>
<!-- Created with Inkscape (http://www.inkscape.org/) -->

<svg
   width="51.609486mm"
   height="51.345482mm"
   viewBox="0 0 51.609486 51.345482"
   version="1.1"
   id="svg1"
   xml:space="preserve"
   xmlns="http://www.w3.org/2000/svg"
   xmlns:svg="http://www.w3.org/2000/svg"><defs
     id="defs1" /><g
     id="layer1"
     transform="translate(-83.931063,-57.587446)"><path
       style="fill:#000000"
       d="m 94.530201,107.2025 v -1.7255 h 3.439583 3.439586 v -1.7198 -1.71979 h 1.71979 1.71979 v -1.71979 -1.719793 h 1.71979 1.71979 v 1.719793 1.71979 h 1.5875 1.5875 v -5.159373 -5.15938 h 3.45221 3.45221 l -0.0788,1.65365 -0.0788,1.65364 -1.65365,0.0788 -1.65364,0.0788 v 3.42695 3.426963 h 1.71979 1.71979 v 1.71979 1.7198 h 3.43958 3.43959 v -1.7198 -1.71979 h 1.71979 1.71979 v -5.159373 -5.15938 h -1.71979 -1.71979 v -1.71979 -1.71979 h -1.7198 -1.71979 v -1.71979 -1.71979 h -3.43958 -3.43958 v -1.5875 -1.5875 h -1.7198 -1.71979 v -1.7198 -1.71979 h -1.5875 -1.5875 v -5.15937 -5.15938 h 1.5875 1.5875 v -1.71979 -1.71979 h -3.29466 -3.29467 l -0.0788,1.65365 -0.0788,1.65364 -1.78594,0.0782 -1.78594,0.0782 v 1.7077 1.70771 h -1.587496 -1.5875 v -1.71979 -1.7198 h -1.719672 -1.719791 v -1.71979 -1.71979 h 3.439583 3.439586 v -1.71979 -1.71979 h 6.75258 6.75259 l -0.0719,5.09323 -0.0719,5.09323 -1.65364,0.0788 -1.65365,0.0788 v 1.70716 1.70717 h 1.71979 1.7198 v 1.71979 1.71979 h 1.71979 1.71979 v 1.71979 1.7198 h 3.43958 3.43959 v 1.5875 1.5875 h 1.71979 1.71979 v 1.71979 1.71979 h 1.71979 1.71979 v -3.30729 -3.30729 h -1.71979 -1.71979 v -1.7198 -1.71979 h -1.71979 -1.71979 v -1.71979 -1.71979 h -1.7198 -1.71979 v -6.87917 -6.87916 h 1.71979 1.7198 v -1.71979 -1.7198 h 5.15937 5.15938 v 3.43959 3.43958 h -1.7198 -1.71979 v 1.71979 1.71979 h -1.71979 -1.71979 v -1.71979 -1.71979 h -1.71979 -1.71979 v 3.43958 3.43959 h 1.71979 1.71979 v 1.71979 1.71979 h 1.71979 1.71979 v 1.71979 1.71979 h 1.71979 1.7198 v 8.46667 8.46667 h -1.7198 -1.71979 v 5.159373 5.15938 h -1.71979 -1.71979 v 1.71979 1.71979 h -5.15938 -5.15937 v -1.71979 -1.71979 h -1.70717 -1.70716 l -0.0788,1.65364 -0.0788,1.65365 -3.24114,0.0743 -3.24115,0.0743 v -1.72794 -1.72793 h -1.70716 -1.70717 l -0.0788,1.65364 -0.0788,1.65365 -5.09323,0.0719 -5.093229,0.0719 z M 132.10103,62.746787 v -1.71979 h -1.71979 -1.71979 v 1.71979 1.71979 h 1.71979 1.71979 z m -30.69166,32.42408 v -3.45221 h -1.852086 -1.852083 v 1.71979 1.7198 h -1.5875 -1.5875 v -3.43959 -3.43958 h 3.439583 3.439586 v -3.30729 -3.30729 h -1.719794 -1.719792 v -1.7198 -1.71979 h -5.159375 -5.159375 v -1.7077 -1.7077 l -1.785937,-0.0782 -1.785938,-0.0782 -0.07405,-3.37344 -0.07405,-3.37344 h 5.16728 5.16728 v 1.7198 1.71979 h -1.719792 -1.719792 v 1.71979 1.71979 h 5.14675 5.146755 l 0.0788,1.65365 0.0788,1.65364 1.78593,0.0782 1.78594,0.0782 v 3.2952 3.29521 h 1.7277 1.72769 l -0.074,3.37343 -0.074,3.37344 -1.64583,0.0786 -1.64584,0.0786 -0.074,3.36101 -0.074,3.36102 -1.65365,0.0788 -1.65364,0.0788 z"
       id="path1" /></g></svg>
