<?xml version="1.0" encoding="UTF-8" standalone="no"?>
<!-- Created with Inkscape (http://www.inkscape.org/) -->

<svg
   width="35.194298mm"
   height="35.198288mm"
   viewBox="0 0 35.194298 35.198288"
   version="1.1"
   id="svg1"
   xml:space="preserve"
   xmlns="http://www.w3.org/2000/svg"
   xmlns:svg="http://www.w3.org/2000/svg"><defs
     id="defs1" /><g
     id="layer1"
     transform="translate(-113.49242,-60.810976)"><path
       style="fill:#000000"
       d="m 117.1966,94.289557 v -1.71979 h -1.85209 -1.85208 v -3.57188 -3.57187 h 1.85208 1.85209 v -1.7198 -1.71979 h 3.43958 3.43958 v -8.86354 -8.86354 h 5.29168 5.29166 v -1.72419 -1.72418 l 6.94531,0.0705 6.94532,0.0705 0.0685,13.95677 0.0685,13.95677 h -1.72213 -1.72213 v 1.85208 1.85209 h -3.57188 -3.57187 v -1.85209 -1.85208 h -1.7198 -1.71979 v -3.43958 -3.43959 h 1.71979 1.7198 v -1.85208 -1.85208 h 3.57187 3.57188 v -3.43959 -3.43958 h -3.57188 -3.57187 v 1.71979 1.71979 h -5.15938 -5.15937 v 8.86354 8.86355 h -1.85209 -1.85209 v 1.71979 1.71979 h -3.43961 -3.43958 z m 20.90209,-24.60625 v -1.71979 h 3.57187 3.57188 v -1.85209 -1.85208 h -5.29167 -5.29167 v 1.85208 1.85209 h -3.43958 -3.43958 v 1.71979 1.71979 h 5.15937 5.15938 z"
       id="path1" /></g></svg>
