<?xml version="1.0" encoding="UTF-8" standalone="no"?>
<!-- Created with Inkscape (http://www.inkscape.org/) -->

<svg
   width="38.894054mm"
   height="39.158237mm"
   viewBox="0 0 38.894054 39.158237"
   version="1.1"
   id="svg1"
   xml:space="preserve"
   xmlns="http://www.w3.org/2000/svg"
   xmlns:svg="http://www.w3.org/2000/svg"><defs
     id="defs1" /><g
     id="layer1"
     transform="translate(-97.170199,-57.425597)"><path
       style="fill:#000000"
       d="m 97.170196,95.261256 v -1.32291 h 1.337413 1.337414 l -0.08064,-1.25677 -0.08064,-1.25677 -1.25677,-0.0806 -1.256771,-0.0806 v -3.95425 -3.95426 h 1.322916 1.322917 v -1.19062 -1.19063 h 3.704165 3.70417 v 1.17613 1.17613 l -1.25677,0.0806 -1.25677,0.0806 -0.0757,2.57968 -0.0757,2.57969 h 1.46479 1.46478 v -2.64583 -2.64584 h 1.19063 1.19062 v 3.95426 3.95425 l -1.25677,0.0806 -1.25677,0.0806 -0.0806,1.25677 -0.0806,1.25677 h 7.96649 7.9665 l -0.0806,-1.25677 -0.0807,-1.25677 -1.24736,-0.0803 -1.24736,-0.0803 -0.0755,-2.56558 -0.0756,-2.56557 -1.12448,-0.0814 -1.12448,-0.0814 v -2.63062 -2.63062 h 1.19063 1.19062 v -2.51354 -2.51354 h 1.32292 1.32291 v -2.64584 -2.64583 h 1.32292 1.32292 v -2.64583 -2.64584 h -1.32292 -1.32292 v -2.51354 -2.51354 h 1.32292 1.32292 v -1.32292 -1.32291 h 2.51354 2.51354 v 1.32291 1.32292 h -1.32292 -1.32291 v 1.32292 1.32291 h 1.45521 1.4552 v -1.32291 -1.32292 h 1.19063 1.19062 v 2.51354 2.51354 h -1.32291 -1.32292 v 2.64584 2.64583 h 1.32292 1.32291 v 2.64583 2.64584 h -1.17612 -1.17613 l -0.0806,-1.25677 -0.0807,-1.25677 h -1.32291 -1.32292 l -0.0806,1.25677 -0.0806,1.25677 h 1.33742 1.33741 v 1.32291 1.32292 h 1.32292 1.32291 v 1.19063 1.19062 h 1.32292 1.32292 v 5.27717 5.27717 l -1.25677,0.0806 -1.25677,0.0806 -0.0806,1.25677 -0.0806,1.25677 h 1.33741 1.33742 v 1.32291 1.32292 H 116.61707 97.170196 Z M 133.6827,77.005006 v -1.32291 h 1.19062 1.19063 v 1.32291 1.32292 h -1.19063 -1.19062 z"
       id="path1" /></g></svg>
