<?xml version="1.0" encoding="UTF-8" standalone="no"?>
<!-- Created with Inkscape (http://www.inkscape.org/) -->

<svg
   width="53.192181mm"
   height="53.181206mm"
   viewBox="0 0 53.192181 53.181206"
   version="1.1"
   id="svg1"
   xml:space="preserve"
   xmlns="http://www.w3.org/2000/svg"
   xmlns:svg="http://www.w3.org/2000/svg"><defs
     id="defs1" /><g
     id="layer1"
     transform="translate(-100.42013,-41.502936)"><path
       style="fill:#000000"
       d="m 100.42013,92.180117 v -2.50396 l 2.57969,-0.0757 2.57969,-0.0757 v -2.77813 -2.77812 l -2.57969,-0.0757 -2.57969,-0.0757 v -15.86542 -15.86542 h 2.64584 2.64583 v -2.64583 -2.64583 h 2.64583 2.64584 v -2.64584 -2.64583 h 10.58333 10.58334 v 2.64583 2.64584 h 2.64583 2.64583 v 2.63625 2.63625 l 2.57969,0.0757 2.57969,0.0757 0.0701,7.87135 0.0701,7.87135 h -2.64977 -2.64977 v 5.29167 5.29167 h -2.64583 -2.64583 v 2.782 2.78201 l 8.00364,-0.07 8.00365,-0.07 0.0754,-2.71198 0.0754,-2.71198 h -2.78738 -2.78738 v -2.65509 -2.65509 l 2.71198,0.0754 2.71198,0.0754 0.0756,2.57022 0.0756,2.57022 2.57022,0.0756 2.57022,0.0756 0.0716,5.35781 0.0716,5.35781 h -2.65131 -2.65131 v 2.64584 2.64583 h -23.94476 -23.9448 z m 26.45834,-21.57312 v -2.64584 h 2.64583 2.64584 v -5.29166 -5.29167 h -2.64584 -2.64583 v -2.64583 -2.64584 h -2.64583 -2.64584 v -2.64583 -2.64583 h -2.64583 -2.64584 v 2.64583 2.64583 h 2.64584 2.64583 v 2.64584 2.64583 h 2.64584 2.64583 v 5.29167 5.29166 h -2.64583 -2.64584 v 2.64584 2.64583 h 2.64584 2.64583 z m -15.875,-10.58334 v -2.64583 h -2.64584 -2.64583 v 2.64583 2.64584 h 2.64583 2.64584 z"
       id="path1" /></g></svg>
