<?xml version="1.0" encoding="UTF-8" standalone="no"?>
<!-- Created with Inkscape (http://www.inkscape.org/) -->

<svg
   width="24.077091mm"
   height="23.81246mm"
   viewBox="0 0 24.077091 23.81246"
   version="1.1"
   id="svg1"
   xml:space="preserve"
   xmlns="http://www.w3.org/2000/svg"
   xmlns:svg="http://www.w3.org/2000/svg"><defs
     id="defs1" /><g
     id="layer1"
     transform="translate(-105.92837,-77.036619)"><path
       style="fill:#000000"
       d="m 114.13046,100.18768 c 0,-0.558563 0.12347,-0.661463 0.79375,-0.661463 0.73075,0 0.79375,-0.0735 0.79375,-0.92604 0,-0.85255 0.063,-0.92604 0.79375,-0.92604 h 0.79375 v -1.73737 -1.73736 l -0.72761,0.0837 c -0.5669,0.0652 -0.74575,0.24087 -0.80977,0.79529 -0.0635,0.54994 -0.24382,0.73025 -0.79375,0.79375 -0.55442,0.064 -0.73007,0.24287 -0.7953,0.80978 -0.0826,0.71821 -0.10827,0.72764 -1.98438,0.72991 -1.04536,10e-4 -2.52573,0.0774 -3.28972,0.16914 l -1.38906,0.16685 v -0.9629 c 0,-0.89349 -0.0572,-0.96289 -0.79375,-0.96289 h -0.79375 v -3.04271 -3.04271 h 0.79375 0.79375 v -1.5875 -1.5875 h 0.79375 c 0.70556,0 0.79375,-0.0882 0.79375,-0.79375 0,-0.70556 0.0882,-0.79375 0.79375,-0.79375 0.70556,0 0.79375,-0.0882 0.79375,-0.79375 0,-0.73076 0.0735,-0.79375 0.92604,-0.79375 0.85255,0 0.92605,-0.063 0.92605,-0.79375 0,-0.70556 0.0882,-0.79375 0.79375,-0.79375 0.70555,0 0.79375,-0.0882 0.79375,-0.79375 0,-0.70556 0.0882,-0.79375 0.79375,-0.79375 0.70555,0 0.79375,-0.0882 0.79375,-0.79375 0,-0.70556 0.0882,-0.79375 0.79375,-0.79375 0.70555,0 0.79375,-0.0882 0.79375,-0.79375 0,-0.70556 0.0882,-0.79375 0.79375,-0.79375 0.70555,0 0.79375,0.0882 0.79375,0.79375 0,0.70555 0.0882,0.79375 0.79375,0.79375 0.70555,0 0.79375,0.0882 0.79375,0.79375 0,0.70156 0.0901,0.79375 0.77617,0.79375 0.65006,0 0.78978,0.11823 0.8599,0.7276 0.0652,0.56691 0.24088,0.74576 0.7953,0.80978 0.54993,0.0635 0.73024,0.24382 0.79375,0.79375 0.0635,0.54993 0.24381,0.73024 0.79375,0.79375 0.54993,0.0635 0.73024,0.24382 0.79375,0.79375 0.0635,0.54993 0.24381,0.73024 0.79375,0.79375 0.54993,0.0635 0.73024,0.24382 0.79375,0.79375 0.0636,0.55088 0.24362,0.73021 0.79706,0.79407 0.6724,0.0776 0.71957,0.17194 0.79375,1.5875 0.0745,1.4225 0.11875,1.5096 0.80646,1.58873 l 0.72761,0.0837 v 3.00756 3.00756 l -0.72761,0.0837 c -0.57149,0.0657 -0.74556,0.23983 -0.81132,0.81132 l -0.0837,0.72761 h -3.15743 -3.15742 v -0.79375 c 0,-0.70556 -0.0882,-0.79375 -0.79375,-0.79375 -0.70938,0 -0.79375,-0.0863 -0.79375,-0.81133 0,-0.72899 -0.0738,-0.80283 -0.72761,-0.7276 -0.7036,0.081 -0.7276,0.13608 -0.7276,1.67122 0,1.52665 0.0273,1.59065 0.71204,1.66972 0.58582,0.0676 0.72652,0.23179 0.79375,0.92604 0.0677,0.69929 0.20633,0.85816 0.80931,0.92754 0.57149,0.0658 0.72761,0.22187 0.72761,0.727603 v 0.64389 h -3.96875 -3.96875 z"
       id="path1" /></g></svg>
