<?xml version="1.0" encoding="UTF-8" standalone="no"?>
<!-- Created with Inkscape (http://www.inkscape.org/) -->

<svg
   width="53.452938mm"
   height="53.029217mm"
   viewBox="0 0 53.452938 53.029217"
   version="1.1"
   id="svg1"
   xml:space="preserve"
   xmlns="http://www.w3.org/2000/svg"
   xmlns:svg="http://www.w3.org/2000/svg"><defs
     id="defs1" /><g
     id="layer1"
     transform="translate(-78.446749,-122.45826)"><path
       style="fill:#000000"
       d="m 83.741982,172.84167 v -2.64583 h -2.64762 -2.64762 l 0.06793,-18.58698 0.06793,-18.58698 8.003646,-0.07 8.003646,-0.07 v -2.64196 -2.64195 h 2.513542 2.513542 v 2.64583 2.64584 h 5.423962 5.42396 v -2.65542 -2.65541 l 2.57968,0.0757 2.57968,0.0757 0.0757,2.57582 0.0757,2.57583 7.99411,0.07 7.99411,0.07 0.0679,18.58698 0.0679,18.58698 h -2.64761 -2.64762 v 2.64583 2.64583 h -2.77812 -2.77813 v -2.64583 -2.64583 H 105.04094 89.033649 v 2.64583 2.64583 h -2.645833 -2.645834 z m 37.306248,-10.84792 v -2.64583 h 2.77813 2.77812 v -7.9375 -7.9375 h -2.76854 -2.76854 l -0.0757,-2.57969 -0.0757,-2.57968 H 110.33261 99.749274 l -0.07561,2.57022 -0.07561,2.57022 -2.570221,0.0756 -2.570221,0.0756 -0.07008,7.87136 -0.07008,7.87135 h 2.64977 2.649771 v 2.64583 2.64584 h 10.715627 10.71562 z m -31.754049,-10.2526 c -0.0022,-1.27331 -0.101475,-2.46866 -0.220549,-2.65635 -0.157702,-0.24856 -0.893106,-0.32042 -2.707928,-0.26458 l -2.49143,0.0767 -0.07573,2.57969 -0.07573,2.57968 h 2.787706 2.787706 z m -0.110649,-10.84792 -0.01759,-2.57968 h -2.645834 -2.645833 l -0.07573,2.57968 -0.07573,2.57969 h 2.739152 2.739151 z m 0.01685,-15.38095 c -0.09566,-1.1471 -0.103656,-2.26878 -0.01776,-2.49262 0.115629,-0.30133 0.648922,-0.43007 2.054124,-0.49588 3.245097,-0.15197 3.088573,-0.2833 3.088573,2.59144 v 2.4827 h -2.475501 -2.475501 z m 26.556188,-0.4279 v -2.51354 h 2.64583 2.64583 v 2.51354 2.51354 h -2.64583 -2.64583 z"
       id="path1" /></g></svg>
